<svg width="97" height="23" viewBox="0 0 97 23" fill="none" xmlns="http://www.w3.org/2000/svg">
<path fill-rule="evenodd" clip-rule="evenodd" d="M1.26319 0.841028C1.01078 1.11231 0.865707 1.52984 0.865707 2.0724V21.371C0.865707 21.9136 1.01078 22.3311 1.27263 22.5929L1.34104 22.6507L12.1545 11.8373V11.5943L1.3316 0.783234L1.26319 0.841028Z" fill="url(#paint0_linear_6_35)"/>
<path fill-rule="evenodd" clip-rule="evenodd" d="M15.7521 15.4561L12.1453 11.8481V11.5957L15.7533 7.98767L15.8311 8.03603L20.0985 10.461C21.3204 11.1498 21.3204 12.2845 20.0985 12.9828L15.8311 15.4078C15.83 15.4078 15.7521 15.4561 15.7521 15.4561Z" fill="url(#paint1_linear_6_35)"/>
<path fill-rule="evenodd" clip-rule="evenodd" d="M15.8299 15.4076L12.1452 11.7217L1.26338 22.6036C1.66087 23.0306 2.32963 23.0789 3.07742 22.6614L15.8299 15.4076Z" fill="url(#paint2_linear_6_35)"/>
<path fill-rule="evenodd" clip-rule="evenodd" d="M15.8299 8.03732L3.07742 0.792976C2.33081 0.366006 1.66087 0.4238 1.26338 0.850771L12.1441 11.722L15.8299 8.03732Z" fill="url(#paint3_linear_6_35)"/>
<path opacity="0.2" fill-rule="evenodd" clip-rule="evenodd" d="M15.7523 15.3297L3.08708 22.5257C2.37939 22.9326 1.74837 22.9043 1.34145 22.5351L1.27304 22.6035L1.34145 22.6613C1.74837 23.0293 2.37939 23.0588 3.08708 22.6519L15.8396 15.4076L15.7523 15.3297Z" fill="black"/>
<path opacity="0.12" fill-rule="evenodd" clip-rule="evenodd" d="M20.0977 12.8564L15.7431 15.3298L15.821 15.4076L20.0883 12.9826C20.6993 12.6335 21 12.1782 21 11.7217C20.9611 12.1393 20.6509 12.5368 20.0977 12.8564Z" fill="black"/>
<path opacity="0.25" fill-rule="evenodd" clip-rule="evenodd" d="M3.07721 0.918493L20.0971 10.5878C20.6502 10.898 20.9604 11.305 21.0088 11.7225C21.0088 11.2672 20.708 10.8108 20.0971 10.4616L3.07721 0.792289C1.85527 0.0940386 0.865692 0.675521 0.865692 2.07202V2.19823C0.865692 0.801725 1.85527 0.229678 3.07721 0.918493Z" fill="white"/>
<path fill-rule="evenodd" clip-rule="evenodd" d="M25.1633 11.1098C25.1633 8.01835 27.7617 5.50134 30.8531 5.50134C32.5621 5.50134 33.7782 6.17247 34.6958 7.04646L33.6154 8.12686C32.9596 7.51117 32.0703 7.03348 30.8519 7.03348C28.5944 7.03348 26.8299 8.85106 26.8299 11.1086C26.8299 13.3661 28.5944 15.186 30.8507 15.186C32.3145 15.186 33.1472 14.5986 33.6815 14.0632C34.1191 13.6256 34.4057 12.9969 34.5165 12.1347H30.8531V10.6061H36.0098C36.064 10.8798 36.0923 11.2077 36.0923 11.5627C36.0923 12.7103 35.7774 14.1339 34.7642 15.1471C33.7782 16.1732 32.5209 16.7205 30.8519 16.7205C27.7593 16.7205 25.1609 14.2059 25.1609 11.1121L25.1633 11.1098ZM40.2606 9.49623C38.2637 9.49623 36.6337 11.0154 36.6337 13.1066C36.6337 15.1872 38.2626 16.717 40.2606 16.717C42.2586 16.717 43.8851 15.1848 43.8851 13.1054C43.8851 11.0142 42.2574 9.49505 40.2606 9.49623ZM40.2606 15.2969C39.1672 15.2969 38.2225 14.3946 38.2225 13.1078C38.2225 11.808 39.166 10.9187 40.2606 10.9187C41.354 10.9187 42.2975 11.8068 42.2975 13.1078C42.2975 14.3934 41.3551 15.2969 40.2606 15.2969ZM48.169 9.49623C46.1721 9.49623 44.5445 11.0154 44.5445 13.1066C44.5445 15.1872 46.1721 16.717 48.169 16.717C50.1658 16.717 51.7935 15.1848 51.7935 13.1054C51.7935 11.0142 50.167 9.49505 48.169 9.49623ZM48.169 15.2969C47.0756 15.2969 46.1308 14.3946 46.1308 13.1078C46.1308 11.808 47.0744 10.9187 48.169 10.9187C49.2624 10.9187 50.2071 11.8068 50.2071 13.1078C50.2071 14.3934 49.2624 15.2969 48.169 15.2969ZM57.8749 9.71561V10.303H57.8206C57.4656 9.8772 56.7815 9.49505 55.9205 9.49505C54.1147 9.49505 52.4576 11.0826 52.4576 13.1219C52.4576 15.1447 54.1135 16.7193 55.9205 16.7193C56.7815 16.7193 57.4656 16.3372 57.8206 15.8996H57.8749V16.4186C57.8749 17.7997 57.1365 18.5393 55.9464 18.5393C54.9746 18.5393 54.373 17.841 54.1265 17.2548L52.7442 17.8292C53.1405 18.7858 54.1949 19.9629 55.9453 19.9629C57.8041 19.9629 59.3775 18.8672 59.3775 16.2004V9.71443L57.8749 9.71561ZM56.0561 15.2969C54.9628 15.2969 54.044 14.3793 54.044 13.1219C54.044 11.8505 54.9616 10.9199 56.0561 10.9199C57.1365 10.9199 57.9846 11.8493 57.9846 13.1219C57.9858 14.3793 57.1377 15.2969 56.0561 15.2969ZM60.4733 5.88467H62.0609V16.5H60.4733V5.88467ZM66.4119 15.2969C65.6052 15.2969 65.0296 14.9265 64.6628 14.2035L69.4916 12.2043L69.3253 11.7939C69.0257 10.9883 68.108 9.49623 66.2338 9.49623C64.3738 9.49623 62.8275 10.96 62.8275 13.1078C62.8275 15.1306 64.3597 16.7182 66.4119 16.7182C68.0679 16.7182 69.0257 15.7074 69.422 15.1176L68.1906 14.2979C67.779 14.9006 67.2175 15.2981 66.4119 15.2969ZM66.2881 10.8916C66.9168 10.8916 67.4499 11.2065 67.628 11.657L64.3986 12.9981C64.3585 11.6028 65.4802 10.8916 66.2881 10.8916ZM76.4575 5.88467H72.662V16.5H74.246V12.4791H76.4587C78.215 12.4791 79.9417 11.2077 79.9417 9.18131C79.9417 7.15851 78.2162 5.88585 76.4611 5.88585L76.4575 5.88467ZM76.4988 11.0012H74.246V7.36138H76.4988C77.683 7.36138 78.3577 8.34388 78.3577 9.18131C78.3577 10.0046 77.683 11.0012 76.4988 11.0012ZM82.3986 16.5V5.88467H80.8145V16.5H82.3986ZM89.5144 16.4811V12.4119C89.5144 10.5271 88.1061 9.47618 86.2885 9.47618C85.1432 9.47618 83.9555 9.98217 83.4636 11.1015L84.8696 11.6877C85.1703 11.1015 85.7294 10.9092 86.318 10.9092C87.1365 10.9092 87.9692 11.4011 87.9822 12.2763V12.3859C87.6956 12.222 87.0823 11.9755 86.3298 11.9755C84.8141 11.9755 83.2714 12.8082 83.2714 14.3651C83.2714 15.7864 84.5145 16.7005 85.9075 16.7005C86.9738 16.7005 87.56 16.2228 87.928 15.6637H87.9822V16.4834H89.5132L89.5144 16.4811ZM86.0998 15.2945C85.5808 15.2945 84.8566 15.0351 84.8566 14.3946C84.8566 13.5749 85.7589 13.2588 86.5374 13.2588C87.2344 13.2588 87.5611 13.4086 87.9858 13.6138C87.8643 14.5668 87.0587 15.2827 86.0998 15.2945ZM95.085 9.70854L93.2686 14.3097H93.2144L91.3296 9.70854H89.6229L92.4489 16.1414L90.8365 19.7188H92.489L96.8448 9.70854H95.085Z" fill="#808285"/>
<defs>
<linearGradient id="paint0_linear_6_35" x1="11.1835" y1="1.86496" x2="-6.13779" y2="6.48023" gradientUnits="userSpaceOnUse">
<stop stop-color="#00A0FF"/>
<stop offset="0.007" stop-color="#00A1FF"/>
<stop offset="0.26" stop-color="#00BEFF"/>
<stop offset="0.512" stop-color="#00D2FF"/>
<stop offset="0.76" stop-color="#00DFFF"/>
<stop offset="1" stop-color="#00E3FF"/>
</linearGradient>
<linearGradient id="paint1_linear_6_35" x1="21.6886" y1="11.7224" x2="0.568964" y2="11.7224" gradientUnits="userSpaceOnUse">
<stop stop-color="#FFE000"/>
<stop offset="0.409" stop-color="#FFBD00"/>
<stop offset="0.775" stop-color="#FFA500"/>
<stop offset="1" stop-color="#FF9C00"/>
</linearGradient>
<linearGradient id="paint2_linear_6_35" x1="13.8263" y1="13.7269" x2="-0.0792821" y2="37.1309" gradientUnits="userSpaceOnUse">
<stop stop-color="#FF3A44"/>
<stop offset="1" stop-color="#C31162"/>
</linearGradient>
<linearGradient id="paint3_linear_6_35" x1="-1.47585" y1="-5.57833" x2="4.72785" y2="4.87427" gradientUnits="userSpaceOnUse">
<stop stop-color="#32A071"/>
<stop offset="0.069" stop-color="#2DA771"/>
<stop offset="0.476" stop-color="#15CF74"/>
<stop offset="0.801" stop-color="#06E775"/>
<stop offset="1" stop-color="#00F076"/>
</linearGradient>
</defs>
</svg>
